 http://www.shotpix.com/images/84567105060553526008.jpg
 
http://www.imdb.com/title/tt0790724/

Plot:A homicide investigator digs deeper into a case involving a trained military sniper who shot five random victims.

Director: 
Christopher McQuarrie

 Writers: 
Christopher McQuarrie (screenplay), Lee Child (book)
 
Stars:
 Tom Cruise, Rosamund Pike and Richard Jenkins

Genres:
 Action | Crime | Thriller 

Thanks: Devildeeds74 


Format                                   : AVI
Format/Info                              : Audio Video Interleave
File size                                : 703 MiB
Duration                                 : 2h 4mn
Overall bit rate                         : 787 Kbps
Writing application                      : Lavf54.32.100

Video
ID                                       : 0
Format                                   : MPEG-4 Visual
Format profile                           : Simple@L3
Format settings, BVOP                    : No
Format settings, QPel                    : No
Format settings, GMC                     : No warppoints
Format settings, Matrix                  : Default (H.263)
Codec ID                                 : XVID
Codec ID/Hint                            : XviD
Duration                                 : 2h 4mn
Bit rate                                 : 710 Kbps
Width                                    : 640 pixels
Height                                   : 272 pixels
Display aspect ratio                     : 2.25:1
Frame rate                               : 29.970 fps
Color space                              : YUV
Chroma subsampling                       : 4:2:0
Bit depth                                : 8 bits
Scan type                                : Progressive
Compression mode                         : Lossy
Bits/(Pixel*Frame)                       : 0.136
Stream size                              : 634 MiB (90%)
Writing library                          : XviD 64

Audio
ID                                       : 1
Format                                   : MPEG Audio
Format version                           : Version 1
Format profile                           : Layer 3
Codec ID                                 : 55
Codec ID/Hint                            : MP3
Duration                                 : 2h 4mn
Bit rate mode                            : Constant
Bit rate                                 : 64.0 Kbps
Channel(s)                               : 2 channels
Sampling rate                            : 44.1 KHz
Compression mode                         : Lossy
Stream size                              : 57.2 MiB (8%)
Alignment                                : Aligned on interleaves
Interleave, duration                     : 26 ms (0.78 video frame)
Interleave, preload duration             : 26 ms
Writing library                          : LAME3.99.5╨ä╨ä╨ä╨ä╨ä╨ä╨ä╨ä╨ä╨ä

 
http://www.shotpix.com/images/76962024859668570408.png 
http://www.shotpix.com/images/83197395351240448253.png 
http://www.shotpix.com/images/74931600377030822641.png 
http://www.shotpix.com/images/10750814158322182900.png 
http://www.shotpix.com/images/36330553323922404157.png